<?xml version="1.0" standalone="no"?>
<!DOCTYPE svg PUBLIC "-//W3C//DTD SVG 20010904//EN"
 "http://www.w3.org/TR/2001/REC-SVG-20010904/DTD/svg10.dtd">
<svg version="1.0" xmlns="http://www.w3.org/2000/svg"
 width="558.000000pt" height="210.000000pt" viewBox="0 0 558.000000 210.000000"
 preserveAspectRatio="xMidYMid meet">

<g transform="translate(0.000000,210.000000) scale(0.100000,-0.100000)"
fill="#000000" stroke="none">
<path d="M2297 1484 c-4 -4 -7 -195 -7 -424 0 -463 -3 -444 67 -438 l38 3 6
168 c3 92 8 169 10 172 3 2 51 6 108 7 l103 3 95 -165 c52 -91 101 -171 110
-177 22 -17 88 -17 101 0 9 10 -11 54 -83 181 -52 93 -95 172 -95 176 0 4 10
10 23 14 13 3 44 24 70 46 62 55 81 107 75 208 -6 103 -37 153 -122 197 l-59
30 -216 3 c-119 2 -220 0 -224 -4z m435 -116 c47 -21 70 -57 76 -117 6 -65
-17 -111 -71 -141 -37 -21 -58 -24 -184 -28 l-143 -5 0 158 0 157 143 -4 c100
-3 153 -9 179 -20z"/>
<path d="M3790 1472 c0 -9 68 -131 150 -271 l150 -253 0 -153 c0 -171 3 -178
67 -173 l38 3 5 165 5 165 153 255 c84 140 151 259 149 265 -2 5 -26 11 -54
13 -62 4 -48 20 -190 -223 -58 -99 -108 -183 -112 -187 -4 -4 -62 87 -130 202
l-123 210 -54 0 c-45 0 -54 -3 -54 -18z"/>
<path d="M550 1319 c12 -8 10 -9 -9 -4 -12 4 -42 2 -66 -5 -49 -14 -118 -66
-109 -82 4 -6 2 -8 -4 -4 -28 17 -88 -142 -78 -208 23 -141 131 -244 264 -253
70 -5 149 15 145 36 -2 5 3 8 11 5 17 -7 88 54 79 69 -3 6 -1 7 6 3 12 -8 54
72 45 86 -3 4 0 8 5 8 18 0 13 134 -6 177 -39 85 -111 150 -187 169 -23 6 -27
4 -21 -7 6 -10 3 -10 -11 2 -10 8 -32 16 -49 17 -24 1 -27 0 -15 -9z"/>
<path d="M1624 1309 c-60 -23 -121 -81 -155 -147 -31 -62 -32 -166 -2 -233 42
-94 134 -158 239 -167 206 -16 356 182 288 382 -23 65 -103 145 -171 169 -65
22 -135 21 -199 -4z"/>
<path d="M3094 1257 c-3 -8 -4 -118 -2 -243 3 -200 5 -233 22 -264 43 -81 112
-128 201 -137 74 -8 116 2 175 42 48 32 50 33 50 11 0 -12 5 -27 12 -34 16
-16 70 -16 86 0 17 17 17 609 0 626 -7 7 -26 12 -43 12 -53 0 -55 -8 -55 -208
0 -102 -5 -203 -11 -228 -38 -148 -256 -165 -317 -24 -12 26 -17 88 -21 245
l-6 210 -43 3 c-30 2 -44 -1 -48 -11z"/>
<path d="M4650 1255 c-8 -10 -11 -73 -8 -237 l3 -223 30 -54 c33 -61 72 -94
134 -116 85 -30 176 -16 244 37 l37 29 0 -24 c0 -31 18 -47 55 -47 17 0 36 5
43 12 9 9 12 94 12 319 0 336 3 319 -59 319 -49 0 -51 -9 -51 -225 0 -188 -1
-203 -22 -245 -30 -58 -76 -85 -148 -85 -67 0 -115 26 -145 75 -18 32 -20 55
-23 245 -2 127 -8 215 -14 222 -14 18 -73 16 -88 -2z"/>
</g>
</svg>
